:version 1.10
:name ASF
:units
  mass 1
  length 1
  angle deg
:documentation
  ASF file generated by Kaydara
:root
  axis xyz
  order  tx ty tz rx ry rz
  position 0 0 0
  orientation 0 0 0
:bonedata
  begin
    id 1
    name SpineDummy
    direction 0.999998 -0.00179978 1.38929e-006
    length 3.60008
    axis 0 0 0 xyz
  end
  begin
    id 2
    name Spine
    direction 0.964365 0.262802 0.0305839
    length 8.13928
    axis 1.33928 -1.75354 15.2838 xyz
    dof rx ry rz
  end
  begin
    id 3
    name Spine1
    direction 0.811168 0.572065 0.12144
    length 7.14954
    axis 2.2224 -6.9761 35.2157 xyz
    dof rx ry rz
  end
  begin
    id 4
    name Neck
    direction 0 0 0
    length 0
    axis 2.2224 -6.9761 35.2157 xyz
    dof rx ry rz
  end
  begin
    id 5
    name HeadDummy
    direction 0.810939 0.572387 0.121455
    length 3.55534
    axis 2.2224 -6.9761 35.2157 xyz
  end
  begin
    id 6
    name Head
    direction 0.998226 -0.000232542 0.0595419
    length 7.35666
    axis -3.03688 -3.41352 -0.0133467 xyz
    dof rx ry rz
  end
  begin
    id 7
    name R_ClavicleDummy
    direction 0.531669 -0.194489 -0.824319
    length 2.49392
    axis 2.2224 -6.9761 35.2157 xyz
  end
  begin
    id 8
    name R_Clavicle
    direction -0.155119 0.0480802 -0.986725
    length 4.485
    axis -54.2764 80.6538 162.779 xyz
    dof rx ry rz
  end
  begin
    id 9
    name R_UpperArm
    direction -0.955567 0.200068 -0.216484
    length 10.1122
    axis -72.9943 12.5026 168.175 xyz
    dof rx ry rz
  end
  begin
    id 10
    name R_Forearm
    direction -0.61433 0.385743 0.688332
    length 9.39148
    axis -117.015 -43.4982 147.875 xyz
    dof rx ry rz
  end
  begin
    id 11
    name R_Hand
    direction -0.699429 0.0170333 0.714499
    length 3.66324
    axis -45.0303 -36.7097 175.478 xyz
    dof rx ry rz
  end
  begin
    id 12
    name L_ClavicleDummy
    direction 0.40287 -0.36502 0.839319
    length 2.49392
    axis 2.2224 -6.9761 35.2157 xyz
  end
  begin
    id 13
    name L_Clavicle
    direction -0.231271 -0.0726419 0.970174
    length 4.485
    axis 18.4357 -75.9711 -162.563 xyz
    dof rx ry rz
  end
  begin
    id 14
    name L_UpperArm
    direction -0.917494 0.144359 0.370629
    length 10.1122
    axis 56.0417 -21.7544 171.058 xyz
    dof rx ry rz
  end
  begin
    id 15
    name L_Forearm
    direction -0.496786 0.615074 -0.612281
    length 9.39148
    axis 89.8094 37.7546 128.927 xyz
    dof rx ry rz
  end
  begin
    id 16
    name L_Hand
    direction -0.409932 0.64962 -0.640274
    length 3.66324
    axis -0.424369 32.133 128.52 xyz
    dof rx ry rz
  end
  begin
    id 17
    name L_ThighDummy
    direction -1.84081e-006 1.87549e-006 1
    length 3.13049
    axis 0 0 0 xyz
  end
  begin
    id 18
    name L_Thigh
    direction -0.947739 0.307978 0.083308
    length 17.9961
    axis 173.219 -4.77873 161.998 xyz
    dof rx ry rz
  end
  begin
    id 19
    name L_Calf
    direction -0.728814 -0.684427 0.0197583
    length 13.3367
    axis 167.331 -1.13214 -136.799 xyz
    dof rx ry rz
  end
  begin
    id 20
    name L_Foot
    direction -0.9028 0.418719 0.0981191
    length 5.8674
    axis 163.436 11.5135 -155.37 xyz
    dof rx ry rz
  end
  begin
    id 21
    name L_Toe0
    direction -0.35341 0.886259 0.299411
    length 4.75286
    axis 169.316 -17.4222 111.74 xyz
    dof rx ry rz
  end
  begin
    id 22
    name R_ThighDummy
    direction 9.32778e-007 -8.82053e-007 -1
    length 3.13049
    axis 0 0 0 xyz
  end
  begin
    id 23
    name R_Thigh
    direction -0.925064 0.37528 -0.0585023
    length 17.9961
    axis -178.698 3.35385 157.919 xyz
    dof rx ry rz
  end
  begin
    id 24
    name R_Calf
    direction -0.68969 -0.718776 -0.0876886
    length 13.3367
    axis -160.504 5.03065 -133.817 xyz
    dof rx ry rz
  end
  begin
    id 25
    name R_Foot
    direction -0.857405 0.418858 -0.299022
    length 5.8674
    axis -161.328 4.38911 -154.413 xyz
    dof rx ry rz
  end
  begin
    id 26
    name R_Toe0
    direction -0.100745 0.952789 -0.286433
    length 4.75286
    axis 171.683 16.6445 96.0359 xyz
    dof rx ry rz
  end
:hierarchy
  begin
    root SpineDummy L_ThighDummy R_ThighDummy
    SpineDummy Spine
    Spine Spine1
    Spine1 Neck
    Neck HeadDummy R_ClavicleDummy L_ClavicleDummy
    HeadDummy Head
    R_ClavicleDummy R_Clavicle
    R_Clavicle R_UpperArm
    R_UpperArm R_Forearm
    R_Forearm R_Hand
    L_ClavicleDummy L_Clavicle
    L_Clavicle L_UpperArm
    L_UpperArm L_Forearm
    L_Forearm L_Hand
    L_ThighDummy L_Thigh
    L_Thigh L_Calf
    L_Calf L_Foot
    L_Foot L_Toe0
    R_ThighDummy R_Thigh
    R_Thigh R_Calf
    R_Calf R_Foot
    R_Foot R_Toe0
  end

:SAMPLES-PER-SECOND 30
:FULLY-SPECIFIED
:DEGREES
21
root  -2.91033 32.243 -56.5694 102.539 4.52898 91.6629
Spine  0.127352 5.63339 -16.523
Spine1  0.964953 3.71049 5.53504
Neck  3.97569e-016 0 -2.38542e-015
Head  25.4553 -9.89336 28.3946
R_Clavicle  0.467325 -16.6036 3.01321
R_UpperArm  8.95514 0.239306 19.5144
R_Forearm  24.7905 -21.8038 19.3368
R_Hand  -1.11447 8.62864 -19.8409
L_Clavicle  -0.503976 17.775 0.0356658
L_UpperArm  -23.8261 17.7313 22.1285
L_Forearm  19.3085 42.8333 48.0172
L_Hand  0.0902539 -1.16171 2.21727
L_Thigh  -1.84854 -2.12297 1.23299
L_Calf  2.43765 -2.76353 20.1698
L_Foot  2.75553 9.50197 1.48657
L_Toe0  0.77604 0.0392787 -5.93185
R_Thigh  11.0946 2.37962 -17.3402
R_Calf  5.04139 8.76588 27.0477
R_Foot  -0.372561 2.01091 9.68433
R_Toe0  -1.78853 -0.272788 -17.3235
22
root  -2.77093 32.3506 -56.1253 102.746 4.10397 90.6786
Spine  0.858453 6.88167 -16.5973
Spine1  1.47185 2.1347 3.47597
Neck  3.97569e-016 0 -2.38542e-015
Head  25.2349 -9.26982 27.9809
R_Clavicle  0.454002 -16.7041 2.76642
R_UpperArm  7.82502 -0.510171 20.5606
R_Forearm  24.4748 -23.7674 20.3598
R_Hand  -1.04533 8.27036 -19.2851
L_Clavicle  -0.504318 17.6827 -0.162108
L_UpperArm  -23.7398 18.0035 23.2107
L_Forearm  20.4618 43.5165 49.6562
L_Hand  0.103656 -1.26929 2.62028
L_Thigh  -0.6538 -1.90866 2.31474
L_Calf  1.88485 -3.0973 23.0207
L_Foot  3.7416 13.1747 1.66949
L_Toe0  0.467019 0.035283 -6.16987
R_Thigh  8.3256 3.09578 -18.6626
R_Calf  7.41326 11.4487 28.9263
R_Foot  -0.402263 1.79449 9.16796
R_Toe0  -1.78853 -0.272788 -17.3235
23
root  -2.60509 32.3515 -55.6744 102.635 3.73053 89.4091
Spine  1.59409 8.59741 -16.519
Spine1  2.03435 0.266931 1.71489
Neck  3.97569e-016 0 -2.38542e-015
Head  25.0625 -8.74822 26.7609
R_Clavicle  0.436322 -16.4915 2.41019
R_UpperArm  10.4842 -1.43355 21.3541
R_Forearm  21.7828 -27.0799 20.4645
R_Hand  -0.976719 8.40394 -18.7843
L_Clavicle  -0.507371 17.7594 -0.202769
L_UpperArm  -23.554 17.7505 24.0463
L_Forearm  21.3553 44.0046 50.5997
L_Hand  0.102925 -1.26741 2.59805
L_Thigh  0.653128 -1.09603 3.86993
L_Calf  2.13019 -3.15644 23.6805
L_Foot  2.76061 13.0809 -1.35742
L_Toe0  0.505156 0.036836 -6.13608
R_Thigh  5.52058 4.10308 -19.6239
R_Calf  9.62514 13.5097 30.1332
R_Foot  -0.363602 1.87722 9.0978
R_Toe0  -1.78853 -0.272788 -17.3235
24
root  -2.4133 32.2633 -55.2273 102.27 3.2982 88.0879
Spine  2.376 10.2969 -16.1582
Spine1  2.68191 -1.61971 0.0402003
Neck  3.97569e-016 0 -2.38542e-015
Head  25.0593 -8.29716 25.2285
R_Clavicle  0.41676 -16.442 2.04268
R_UpperArm  16.0846 -2.2076 22.0643
R_Forearm  16.5391 -31.6507 20.2741
R_Hand  -0.973582 8.82932 -18.8237
L_Clavicle  -0.520786 18.2594 -0.0909065
L_UpperArm  -23.2156 16.7261 24.6006
L_Forearm  21.9836 44.4794 51.111
L_Hand  0.0958143 -1.2122 2.38739
L_Thigh  1.21352 -0.192923 5.08728
L_Calf  2.13433 -2.98865 22.3967
L_Foot  2.50876 13.1695 -2.22296
L_Toe0  0.505156 0.0382291 -6.13606
R_Thigh  4.31219 5.09805 -20.1071
R_Calf  10.1695 14.2172 30.6262
R_Foot  -0.293763 2.1748 9.52695
R_Toe0  -1.78853 -0.272788 -17.3235
25
root  -2.18581 32.1347 -54.7742 101.787 3.07413 87.4226
Spine  3.23459 11.0404 -15.1396
Spine1  3.41904 -3.26742 -1.37259
Neck  3.97569e-016 0 -2.38542e-015
Head  25.1976 -7.69467 23.6705
R_Clavicle  0.402295 -16.9285 1.73647
R_UpperArm  22.3777 -2.76736 22.929
R_Forearm  10.0603 -36.2339 20.6132
R_Hand  -1.02249 9.24586 -19.2275
L_Clavicle  -0.538646 18.9374 0.00856994
L_UpperArm  -22.8667 15.0806 24.6014
L_Forearm  22.3609 44.9535 51.3379
L_Hand  0.0873575 -1.54022 2.3101
L_Thigh  0.8098 0.328376 5.60467
L_Calf  2.18228 -2.62242 19.5812
L_Foot  3.37141 12.9171 0.705792
L_Toe0  0.505156 0.0392056 -6.13606
R_Thigh  4.65689 5.39709 -20.6057
R_Calf  9.20335 13.7912 30.4644
R_Foot  -0.167962 2.7147 10.3817
R_Toe0  -1.78853 -0.272788 -17.3235
26
root  -1.91275 32.0299 -54.3217 101.319 3.31512 88.1572
Spine  4.05649 10.0315 -13.3419
Spine1  4.12732 -4.68736 -2.03017
Neck  3.97569e-016 0 -2.38542e-015
Head  25.4238 -6.85112 22.0166
R_Clavicle  0.397063 -17.7619 1.53248
R_UpperArm  26.697 -3.43505 23.9119
R_Forearm  4.89639 -39.1348 21.485
R_Hand  -1.03597 9.51775 -19.3524
L_Clavicle  -0.548634 19.1954 -0.0700333
L_UpperArm  -22.6027 13.4165 23.8577
L_Forearm  21.6075 45.1147 50.8783
L_Hand  0.0714774 -2.18251 2.15443
L_Thigh  -0.23529 -0.188154 4.64673
L_Calf  2.29779 -2.41349 18.0181
L_Foot  4.03366 12.9102 2.80372
L_Toe0  0.505156 0.0398069 -6.13605
R_Thigh  6.83525 4.28871 -21.6298
R_Calf  6.83465 12.15 30.0827
R_Foot  0.0582698 3.52751 11.4376
R_Toe0  -1.78853 -0.272788 -17.3235
27
root  -1.60456 31.9584 -53.9116 100.848 3.6755 90.0877
Spine  4.61181 7.73745 -11.3003
Spine1  4.60654 -6.31006 -1.85515
Neck  3.97569e-016 0 -2.38542e-015
Head  25.8607 -5.94653 20.3034
R_Clavicle  0.398652 -18.5418 1.44929
R_UpperArm  28.1381 -4.41961 24.7161
R_Forearm  2.70947 -40.1865 21.9909
R_Hand  -1.00074 9.74629 -19.1294
L_Clavicle  -0.544372 18.7721 -0.400791
L_UpperArm  -22.1805 12.1747 22.7958
L_Forearm  18.6328 44.5556 48.8085
L_Hand  0.0480124 -2.49791 1.45661
L_Thigh  -1.61342 -1.81557 2.87932
L_Calf  2.28808 -2.35731 17.707
L_Foot  4.45185 13.083 3.96673
L_Toe0  0.505156 0.0400741 -6.13605
R_Thigh  9.72184 2.02439 -22.724
R_Calf  4.02927 9.728 29.6295
R_Foot  0.41637 4.6237 12.5488
R_Toe0  -1.8136 -0.272952 -17.3378
28
root  -1.29823 31.8423 -53.5848 100.174 3.58004 92.1322
Spine  4.80389 5.50238 -9.69804
Spine1  4.72914 -8.41321 -1.31288
Neck  3.97569e-016 0 -2.38542e-015
Head  26.8139 -5.22236 18.8267
R_Clavicle  0.401036 -19.1215 1.40251
R_UpperArm  26.9882 -5.51952 25.1615
R_Forearm  3.78079 -40.3007 21.7723
R_Hand  -0.993057 10.0328 -19.1083
L_Clavicle  -0.52879 18.0104 -0.9332
L_UpperArm  -20.2449 11.2333 22.034
L_Forearm  12.8109 42.6837 44.6937
L_Hand  0.0130142 -2.22784 0.181611
L_Thigh  -3.15962 -3.74441 1.74149
L_Calf  2.05928 -2.26925 17.2032
L_Foot  4.86318 13.1997 5.14021
L_Toe0  0.505156 0.0400485 -6.13605
R_Thigh  9.33236 -0.245711 -22.7013
R_Calf  3.89892 8.42798 27.8619
R_Foot  0.856637 5.88394 13.858
R_Toe0  -1.6127 -0.268782 -17.3911
29
root  -1.02875 31.6419 -53.3183 99.2748 3.17113 93.4322
Spine  4.66645 4.11606 -8.71053
Spine1  4.4813 -10.5018 -0.559145
Neck  3.97569e-016 0 -2.38542e-015
Head  28.493 -4.76229 17.7172
R_Clavicle  0.400133 -19.5376 1.2516
R_UpperArm  23.8276 -6.39152 25.3122
R_Forearm  7.07346 -39.8784 21.0685
R_Hand  -1.01702 10.1104 -19.2746
L_Clavicle  -0.512202 17.4085 -1.43063
L_UpperArm  -13.7816 10.1085 21.3647
L_Forearm  3.39644 38.4433 39.9484
L_Hand  -0.0362106 -1.94116 -1.30425
L_Thigh  -4.66173 -5.043 1.6842
L_Calf  1.82336 -2.03589 15.6156
L_Foot  5.41498 13.1184 6.91061
L_Toe0  0.505156 0.0397715 -6.13605
R_Thigh  7.61075 -1.8809 -20.404
R_Calf  4.60574 6.98595 22.3623
R_Foot  1.24887 6.83075 13.9422
R_Toe0  -0.366114 -0.261869 -15.209
30
root  -0.798921 31.416 -53.0337 98.5387 3.13597 94.1427
Spine  4.22555 3.07702 -8.16332
Spine1  3.88068 -11.6263 0.975563
Neck  3.97569e-016 0 -2.38542e-015
Head  30.7188 -4.54022 16.823
R_Clavicle  0.396939 -19.7854 1.01816
R_UpperArm  19.589 -6.83133 25.2556
R_Forearm  10.1601 -38.7385 20.2763
R_Hand  -0.972558 9.68045 -18.9318
L_Clavicle  -0.505228 17.2036 -1.58104
L_UpperArm  -4.94318 8.32227 19.8083
L_Forearm  -5.90469 32.8034 37.0082
L_Hand  -0.0711615 -2.19026 -2.59269
L_Thigh  -5.72531 -5.68544 1.68702
L_Calf  1.73797 -1.74536 13.5894
L_Foot  5.99877 12.9152 8.8878
L_Toe0  0.505156 0.0392843 -6.13605
R_Thigh  6.57167 -3.17842 -15.8294
R_Calf  3.86372 3.91415 12.318
R_Foot  1.87349 7.75538 9.27286
R_Toe0  1.85257 -0.560178 -6.47021
31
root  -0.592496 31.2077 -52.6741 98.2762 3.76395 94.6256
Spine  3.59934 1.7518 -8.08358
Spine1  3.0565 -11.2036 3.66967
Neck  3.97569e-016 0 -2.38542e-015
Head  32.9872 -4.50731 16.1291
R_Clavicle  0.395054 -19.8738 0.890074
R_UpperArm  15.6676 -6.84207 25.0983
R_Forearm  11.5617 -37.1857 19.7589
R_Hand  -0.887896 9.21243 -18.2563
L_Clavicle  -0.511061 17.3941 -1.37889
L_UpperArm  1.2361 5.74193 16.8981
L_Forearm  -11.2019 28.6776 35.6866
L_Hand  -0.0770352 -2.63104 -3.278
L_Thigh  -6.17124 -6.03393 1.00495
L_Calf  1.72808 -1.47021 11.6674
L_Foot  6.55346 12.6557 10.8343
L_Toe0  0.505156 0.0386281 -6.13606
R_Thigh  6.51956 -4.17671 -12.0446
R_Calf  3.33772 1.24534 3.92132
R_Foot  1.65084 6.09761 2.56358
R_Toe0  5.61596 -1.93998 1.70741
